<?xml version="1.0" encoding="UTF-8" standalone="no"?>
<svg width="126px" height="100px" viewBox="0 0 126 100" version="1.1" xmlns="http://www.w3.org/2000/svg" xmlns:xlink="http://www.w3.org/1999/xlink">
    <!-- Generator: Sketch 39.1 (31720) - http://www.bohemiancoding.com/sketch -->
    <title>cup</title>
    <desc>Created with Sketch.</desc>
    <defs></defs>
    <g id="Page-1" stroke="none" stroke-width="1" fill="none" fill-rule="evenodd">
        <g id="cup">
            <path d="M1.53688525,9.375 C1.53688525,9.375 1.53688525,89.5833333 4.61065574,89.5833333 C7.68442623,89.5833333 62.5,99.4791667 62.5,99.4791667 L91.1885246,97.9166667 L97.8483607,88.0208333 L90.1639344,5.72916667 C90.1639344,5.72916667 67.6229508,12.5 48.6680328,12.5 C29.7131148,12.5 1.53688525,9.375 1.53688525,9.375 Z" id="Path-119" stroke="#000000"></path>
            <path d="M0.791096938,9.09966495 C18.36019,-1.81232079 71.0822533,-1.83464255 88.9952163,6.947102" id="Path-120" stroke="#000000"></path>
            <path d="M92.5929717,24.8163793 C110.093429,26.8546734 113.09509,41.796109 94.0707652,44.5418324" id="Path-121" stroke="#000000"></path>
            <path d="M92.6077497,20.3077433 C100.677846,20.4293031 109.614928,16.9708668 116.818037,20.6724225 C135.833904,30.4443544 118.756136,68.5655526 94.2481004,52.4664328" id="Path-122" stroke="#000000"></path>
            <path d="M1.72882408,41.5793267 C19.1359389,38.6840357 11.947529,38.2263015 23.2804269,40.0004163" id="Path-123" stroke="#000000"></path>
            <path d="M3.0749596,62.9123728 C17.9343023,57.0065732 10.1253915,58.2517954 26.5530677,59.5264568" id="Path-124" stroke="#000000"></path>
            <path d="M2.89762438,77.0173966 C5.59678067,77.4325314 27.0136888,82.5540187 29.4965637,77.881973" id="Path-125" stroke="#000000"></path>
            <text id="50" font-family="HiraKakuPro-W3, Hiragino Kaku Gothic Pro" font-size="9" font-weight="300" fill="#000000">
                <tspan x="10.2459016" y="70.5">50</tspan>
            </text>
        </g>
    </g>
</svg>