<?xml version="1.0" encoding="UTF-8" standalone="no"?>
<svg width="181px" height="115px" viewBox="0 0 181 115" version="1.1" xmlns="http://www.w3.org/2000/svg" xmlns:xlink="http://www.w3.org/1999/xlink">
    <!-- Generator: Sketch 39.1 (31720) - http://www.bohemiancoding.com/sketch -->
    <title>glasses</title>
    <desc>Created with Sketch.</desc>
    <defs></defs>
    <g id="Page-1" stroke="none" stroke-width="1" fill="none" fill-rule="evenodd">
        <g id="glasses" transform="translate(0.000000, -30.000000)">
            <g id="image" transform="translate(6.000000, 30.000000)" stroke="#000000" stroke-width="0.5">
                <path d="M10.5603449,52.6881721 C18.3575173,47.5454551 30.1724138,48.9247312 30.1724138,48.9247312 C30.1724138,48.9247312 55.8189655,58.0645161 53.8074713,73.655914 C51.795977,89.2473118 46.7672414,95.1612903 31.1781609,95.1612903 C15.5890805,95.1612903 -1.00574708,90.8602151 0.502873563,74.7311828 C1.19627233,67.317887 3.92834698,57.0623844 10.5603449,52.6881721 Z" id="Path-25"></path>
                <path d="M28.6637931,49.4623647 C26.3950682,49.1712989 21.6235632,49.4623656 21.6235632,49.4623656 C21.6235632,49.4623656 77.9454023,3.22580645 80.9626437,1.07526882 C83.9798851,-1.07526882 88.0028736,4.30107527 88.0028736,4.30107527 C88.0028736,4.30107527 86.9971264,25.2688161 83.9798851,25.2688172 C80.9626437,25.2688183 86.9971264,13.4408601 82.9741379,10.7526882 C78.9511494,8.06451624 34.1954023,51.0752679 34.1954023,51.0752679 C34.1954023,51.0752679 30.5856812,49.708933 28.6637931,49.4623647 Z" id="Path-28"></path>
                <path d="M53.3045977,72.0430108 C53.3045977,72.5942466 59.3390805,69.3548387 63.362069,69.3548387 C67.3850575,69.3548387 72.4137931,71.7788365 72.4137931,70.9677419 C72.4137931,70.1566473 68.8936782,66.6666667 63.362069,66.6666667 C57.8304598,66.6666667 53.3045977,71.4917749 53.3045977,72.0430108 Z" id="Path-29"></path>
                <path d="M93.5344828,54.3010753 C101.077586,54.3010753 113.649425,55.3763441 119.181034,72.0430108 C124.712644,88.7096774 113.146552,94.6236559 113.146552,94.6236559 C113.146552,94.6236559 100.071839,102.688172 86.4942529,97.311828 C72.9166667,91.9354839 69.8994253,82.2580645 70.9051724,74.1935484 C71.9109195,66.1290323 85.9913793,54.3010753 93.5344828,54.3010753 Z" id="Path-30"></path>
                <path d="M115.158046,67.2043011 L156.393678,29.5698925 C156.393678,29.5698925 165.445402,25.8064515 169.971264,28.4946237 C174.497126,31.1827958 175.502874,34.9462367 173.994253,40.8602151 C172.485632,46.7741934 167.425815,48.9786924 165.445402,47.8494614 C163.464989,46.7202305 168.965517,44.0860217 166.451149,37.0967743 C164.439655,36.0215056 163.433908,33.3333332 159.913793,33.3333333 C158.004126,33.3333334 151.364943,37.0967743 145.833333,44.0860216 C143.093458,47.547883 118.678161,74.7311819 118.678161,74.7311819 L115.158046,67.2043011 Z" id="Path-31"></path>
                <path d="M16.5938362,76.9059545 C20.9809476,68.5743799 30.2357519,66.0909858 37.9673837,62.1641977" id="Path-32"></path>
                <path d="M15.268862,88.4216411 L38.9261261,73.077181" id="Path-33"></path>
                <path d="M76.1457374,73.9511706 C84.1630972,65.5352877 78.8486818,70.0336116 93.5155869,62.6466399" id="Path-34"></path>
                <path d="M77.8944941,81.1262754 C87.8502116,71.6704183 81.7150469,76.5223591 97.1530532,67.8919757" id="Path-35"></path>
                <path d="M77.5845051,67.7717148 C80.6861393,65.6615543 83.7877736,63.5513939 86.8894079,61.4412335" id="Path-36"></path>
            </g>
            <path d="M54.5,127.932851 C24.4004811,122.653457 1.13686838e-13,104.103338 1.13686838e-13,86.5 C1.13686838e-13,68.8966624 24.4004811,50.3465429 54.5,45.0671485 C83.3086608,40.014168 106.896624,56.6392974 108.86684,82.9091361 C120.588271,86.7343595 129,97.888108 129,111 C129,127.568542 115.568542,138.64415 99,135.738061 C91.9484301,134.50123 85.4650969,131.272028 80.3436054,126.979287 C72.653094,129.188658 63.8516053,129.573104 54.5,127.932851 Z" id="Combined-Shape" fill-opacity="0.423460145" fill="#4990E2"></path>
            <ellipse id="Oval-4" fill="#9B9B9B" cx="64" cy="141.5" rx="41" ry="3.5"></ellipse>
        </g>
    </g>
</svg>