<?xml version="1.0" encoding="UTF-8" standalone="no"?>
<svg width="252px" height="199px" viewBox="0 0 252 199" version="1.1" xmlns="http://www.w3.org/2000/svg" xmlns:xlink="http://www.w3.org/1999/xlink">
    <!-- Generator: Sketch 39.1 (31720) - http://www.bohemiancoding.com/sketch -->
    <title>computer</title>
    <desc>Created with Sketch.</desc>
    <defs></defs>
    <g id="Page-1" stroke="none" stroke-width="1" fill="none" fill-rule="evenodd">
        <g id="computer" transform="translate(-2.000000, -19.000000)">
            <g id="Group">
                <path d="M95.3899994,82.378727 C95.3899994,52.1574103 84.7813867,34.6034951 71.6949997,43.1709599 C58.6086127,51.7384248 48,69.29234 48,82.378727 C48,95.465114 58.6086127,113.019029 71.6949997,121.586494 C84.7813867,130.153959 95.3899994,112.600044 95.3899994,82.378727 Z" id="Oval-2-Copy" fill-opacity="0.646116395" fill="#8B572A" transform="translate(71.695000, 82.378727) rotate(90.000000) translate(-71.695000, -82.378727) "></path>
                <circle id="Oval-2" fill-opacity="0.518880208" fill="#FA1212" cx="92" cy="125" r="23"></circle>
                <path d="M141.5,151 L115.5,133 L104,117.5 L89.5,107 L68.5,121 L65,125 L65,135 L136.5,161 L136.5,182 C136.5,182 141,191.5 129.5,191.5 C118,191.5 124,179 116,171.5 C108,164 45.5,145 45.5,145 L31.5,129.5 L48,106.5 C48,106.5 -2.00000173,76 54.5,64 C111.000002,52 114,80 114,80 C114,80 113.05502,83.3074326 111.446326,87.2971313 C109.001452,93.3606306 105.023561,100.999999 100.5,101 C92.9999977,101.000001 105,107.5 105,107.5 L115.5,89 L120,102.5 L121.5,120.5 L189.5,134.5 L183.500005,144.999997 L172,160.5 L162.5,160.5 L157.5,143 L156,163.5 L151.5,147.5 L141.5,151 Z" id="Path-131" stroke="#979797" fill-opacity="0.626500226" fill="#CC7526"></path>
                <path d="M20.4317851,64.9097948 C22.4198171,73.6571358 16.4317851,79.9097948 16.4317851,79.9097948 C16.4317851,79.9097948 42.2062525,78.5577491 53.9317851,77.4097948 C66.0395858,76.2244157 87.9317851,72.9097948 87.9317851,72.9097948 C87.9317851,72.9097948 81.5038318,73.4842456 78.9317851,60.9097948 C76.3597383,48.335344 78.9317851,28.9097948 78.9317851,28.9097948 L64.9317851,59.4097948 L48.4317851,31.4097948 L35.9317851,62.4097948 L6.43178509,35.9097948 C6.43178509,35.9097948 18.443753,56.1624538 20.4317851,64.9097948 Z" id="Path-126" stroke="#CC7526" fill-opacity="0.85009058" fill="#F8E81C" transform="translate(47.181785, 54.409795) rotate(-21.000000) translate(-47.181785, -54.409795) "></path>
            </g>
            <g id="image" transform="translate(38.000000, 66.000000)" stroke="#000000">
                <path d="M99.5737327,72.2392638 C99.5737327,72.2392638 123.847926,67.1779141 138.214286,67.1779141 C152.580645,67.1779141 200.138249,69.9386503 208.064516,65.797546 C215.990783,61.6564417 215.990783,130.214723 210.541475,133.435583 C205.092166,136.656443 173.882488,139.8773 156.048387,139.877301 C138.214286,139.877301 104.52765,146.319018 104.52765,140.797546 C104.52765,135.276074 102.546083,107.208588 102.546083,101.226994 C102.546083,95.2453996 99.5737327,72.2392638 99.5737327,72.2392638 Z" id="Path-92" stroke-width="1.5"></path>
                <path d="M209.550691,134.815951 L210.541475,146.319018 L157.039171,148.159509 C157.039171,148.159509 134.251152,146.779141 128.801843,146.779141 C123.352535,146.779141 104.52765,149.539877 104.52765,149.539877 L104.52765,141.717791" id="Path-93" stroke-width="3.5"></path>
                <ellipse id="Oval" stroke-width="1.5" cx="155.057604" cy="102.607362" rx="9.4124424" ry="5.06134969"></ellipse>
                <path d="M104.032258,149.079755 C104.032258,149.079755 80.2534562,133.895706 74.8041475,133.895706 C69.3548387,133.895706 49.0437788,126.993865 49.0437788,126.993865 C49.0437788,126.993865 52.016129,123.312883 50.5299539,121.932515 C49.0437788,120.552147 49.5391705,115.490798 49.5391705,115.490798 C49.5391705,115.490798 68.1163594,129.064417 72.3271889,130.674847 C76.5380184,132.285276 104.032258,141.257669 104.032258,141.257669" id="Path-94" stroke-width="2.5"></path>
                <path d="M51.0253456,115.490798 L81.7396313,105.828221 L77.7764977,116.411043 L84.2165899,116.871166 L80.7488479,127.91411 L82.235023,129.294479 L85.702765,121.01227 L85.4261395,116.901369 L85.2073733,113.650307 L87.1889401,107.668712 L86.1981567,123.312883 L86.6935484,126.533742 L88.1797235,125.613497 L89.6658986,114.570552 L91.1520737,112.269939 C91.1520737,112.269939 91.1520737,116.871166 92.6382488,116.871166 C94.124424,116.871166 95.6105991,113.190184 94.6198157,109.509202 C93.6290323,105.828221 98.0875576,99.3865031 94.6198157,98.006135 C91.1520737,96.6257669 67.8686636,87.4233129 67.8686636,87.4233129 C67.8686636,87.4233129 34.6774194,72.2392638 32.2004608,72.2392638 C29.7235023,72.2392638 25.264977,71.7791411 25.264977,71.7791411 C25.264977,71.7791411 22.2926266,50.1533742 25.264977,50.1533742 C28.2373273,50.1533742 26.2557604,46.0122699 26.2557604,46.0122699 L28.7327189,52.4539877" id="Path-95" stroke-width="1.5"></path>
                <path d="M82.235023,104.907975 L82.235023,100.306748 L76.2903226,101.687117 L42.1082949,88.803681 L15.3571429,75.4601227 C15.3571429,75.4601227 6.44009217,71.7791411 6.44009217,68.0981595 C6.44009217,64.4171779 22.7880184,40.4907975 22.7880184,40.4907975" id="Path-96" stroke-width="1.5"></path>
                <path d="M127.81106,66.7177914 L83.2258065,47.392638 C83.2258065,47.392638 74.8041475,50.1533742 74.8041475,47.8527607 C74.8041475,45.5521472 77.281106,24.3865031 75.2995392,24.3865031 C73.3179724,24.3865031 59.9423963,20.7055215 59.9423963,20.7055215" id="Path-97" stroke-width="1.5"></path>
                <polyline id="Path-98" stroke-width="2.5" points="99.5737327 72.2392638 65.8870968 58.8957055 64.4009217 42.3312883 61.4285714 45.5521472"></polyline>
                <path d="M10.9771758,3.97043505 C6.08076094,10.0089405 -1.11063002,16.6254562 0.377176698,25.4191247 C3.14207768,41.7610476 38.6911308,47.4908163 50.8392322,37.4909446 C77.7980072,15.2994693 33.2625721,-9.18400068 13.2442122,9.40916855" id="Path-99" stroke-width="1.5"></path>
                <path d="M31.6300199,7.19179417 C26.8035786,-0.752730753 15.5122798,-1.2552897 9.54869339,5.34274066" id="Path-100" stroke-width="0.5"></path>
                <path d="M33.8685401,34.1139802 C25.9273853,34.1139802 22.9210072,42.8635418 30.6381914,46.223046 C36.2472409,48.6648207 46.7513564,39.4317351 30.8164176,34.1876444" id="Path-101" stroke-width="1.5" fill-opacity="0.724071558" fill="#C73939"></path>
                <path d="M28.9040512,29.9738882 C32.6040826,30.3733405 42.4622031,31.8450175 38.9791744,24.7462149" id="Path-102" stroke-width="2.5"></path>
                <path d="M53.5023041,57.9754601 C53.5023041,57.9754601 55.9792627,53.8343558 51.5207373,53.8343558 C47.062212,53.8343558 43.0990783,57.0552147 45.0806452,61.196319 C47.062212,65.3374233 54.4930876,71.3190184 54.4930876,71.3190184 L57.9608295,53.3742331 L53.5023041,57.9754601 Z" id="Path-103" stroke-width="2.5"></path>
                <path d="M18.3294931,22.5460123 C18.3294931,22.5460123 31.2096774,22.5460123 31.2096774,20.7055215" id="Path-104" stroke-width="1.5"></path>
                <path d="M40.6221198,21.1656442 C40.6221198,21.1656442 51.0253456,23.4662577 53.0069124,20.7055215" id="Path-105" stroke-width="1.5"></path>
                <path d="M16.6461091,14.830554 L17.9572112,22.3406695" id="Path-106" stroke-width="0.5"></path>
                <path d="M21.8940083,15.8083642 L22.8901356,22.2044822" id="Path-107" stroke-width="0.5"></path>
                <path d="M26.3699865,16.0926281 C26.5726358,20.8654268 25.3310434,19.4011196 28.439821,21.343404" id="Path-108" stroke-width="0.5"></path>
                <path d="M18.2675312,22.5608029 L17.6593039,22.428939" id="Path-109" stroke-width="0.5"></path>
                <polyline id="Path-110" stroke-width="0.5" points="44.562109 16.1326196 44.562109 17.1781631 44.562109 18.7162146 44.562109 20.0618746 44.562109 20.3501016 44.562109 20.4462974 44.562109 20.6066236 44.562109 20.8948507 44.562109 21.3754692 44.562109 21.471665 44.562109 21.5678608 44.562109 21.6636963"></polyline>
                <path d="M49.4950334,15.5918336 C49.8515135,17.5530985 50.2079936,19.5143633 50.5644737,21.4756281" id="Path-111" stroke-width="0.5"></path>
                <path d="M112.613606,81.4187821 C112.613606,85.189723 109.058279,90.9107774 112.613606,92.7316046 C117.698466,95.3357674 125.37053,93.6933758 129.824563,90.2332104 C133.24932,87.57265 134.805468,80.8820988 131.68801,77.9134416 C129.299964,75.6393806 114.555306,77.5452002 110.214903,79.9788976 C109.72431,80.2539765 111.177876,80.5561486 111.659362,80.8447741 L112.613606,81.4187821 Z" id="Path-112" stroke-width="0.5"></path>
                <path d="M119.763627,100.290026 C140.75133,95.9084024 139.878057,113.48331 129.884269,116.784487 C118.074182,120.685628 104.028382,122.190179 109.48377,111.786725 C111.572598,107.803318 116.848172,106.115177 120.103007,102.87598 C120.481792,102.499015 117.988898,103.1797 118.437532,102.87598" id="Path-113" stroke-width="0.5"></path>
                <path d="M119.413772,119.681768 C119.258747,124.354582 115.763381,130.080409 118.948696,133.700211 C120.189248,135.109978 152.170493,137.5294 136.729476,118.320688 C134.740731,115.846678 130.099698,117.859536 126.784809,117.628959" id="Path-114" stroke-width="3.5"></path>
                <path d="M120.484285,130.380694 C125.413673,126.49106 130.34306,122.601426 135.272447,118.711792" id="Path-115" stroke-width="4.5"></path>
                <path d="M123.174185,120.095248 C139.775176,121.669032 127.259751,127.036243 136.311536,127.937754" id="Path-116" stroke-width="4.5"></path>
                <path d="M137.242736,118.452029 C144.477602,117.788514 151.712467,117.125 158.947333,116.461486" id="Path-117" stroke-width="2.5"></path>
                <path d="M158.947333,116.461486 C157.515807,139.132828 163.750735,132.903097 137.079331,131.907166" id="Path-118" stroke-width="1.5"></path>
            </g>
        </g>
    </g>
</svg>