<?xml version="1.0" encoding="UTF-8" standalone="no"?>
<svg width="237px" height="310px" viewBox="0 0 237 310" version="1.1" xmlns="http://www.w3.org/2000/svg" xmlns:xlink="http://www.w3.org/1999/xlink">
    <!-- Generator: Sketch 39.1 (31720) - http://www.bohemiancoding.com/sketch -->
    <title>resume</title>
    <desc>Created with Sketch.</desc>
    <defs>
        <linearGradient x1="50%" y1="0%" x2="50%" y2="100%" id="linearGradient-1">
            <stop stop-color="#F6BCE9" stop-opacity="0.778391078" offset="0%"></stop>
            <stop stop-color="#B8E986" stop-opacity="0.493942482" offset="100%"></stop>
        </linearGradient>
    </defs>
    <g id="Page-1" stroke="none" stroke-width="1" fill="none" fill-rule="evenodd">
        <g id="resume">
            <polygon id="Path-128" fill-opacity="0.578011775" fill="#C56611" points="0 179.5 48 67.5 94 80 55 124.5 17.5 209.5"></polygon>
            <polygon id="Path-129" fill-opacity="0.484884511" fill="#CC7526" points="61 245.5 97.5 231.5 93.5 189.5 110.5 178 123.5 207 129.5 236 105 260.5 57 309.5"></polygon>
            <polygon id="Path-130" fill="url(#linearGradient-1)" points="18 201.5 87.5 246 236.5 63.5 103 0"></polygon>
            <g id="image" transform="translate(13.000000, 20.000000)" stroke="#000000" stroke-width="0.5">
                <path d="M0.346538714,149.631076 C15.8530441,135.956119 -2.3570194,153.906495 15.5101706,116.321615 C25.856016,94.558407 36.4960802,74.761165 55.6040846,62.4262153" id="Path"></path>
                <path d="M45.2161253,70.2864583 C56.5542947,80.9259557 65.0238655,60.2124011 76.9992618,63.2682292 C77.8057506,63.4740254 78.2041694,65.3328762 77.5282972,65.8420139 L73.2406496,75.0564236 C65.236009,81.086357 55.6471457,84.3200231 46.8503937,88.9518229" id="Path-2"></path>
                <path d="M49.7682907,87.1267361 C39.9165043,119.543986 45.9357673,103.482777 26.5173885,114.776476" id="Path-3"></path>
                <path d="M37.7009514,109.490017 C26.7915821,126.495029 12.7439763,145.728828 13.078248,167.547743 C13.1747037,173.843692 23.8988979,172.9749 28.6827428,176.71875 C47.6078107,191.529561 51.5927059,195.768473 76.9992618,205.770399" id="Path-4"></path>
                <path d="M58.9177329,230.611979 C91.9352578,225.308858 77.809712,190.936824 85.8841864,169.748264 C87.8201693,164.667972 96.0038394,170.000547 96.007628,172.601997 C96.020088,181.157746 92.384571,189.337963 91.7179298,197.864583 C91.5304687,200.262289 91.5146212,206.030317 93.4875328,204.835069 C97.1236126,202.632226 113.680224,169.938505 101.312336,206.332465 C99.224331,212.476665 96.0046617,218.163765 92.6468176,223.641493 C90.4745532,227.185158 87.8272687,230.453776 84.8220144,233.233507 C78.7799006,238.822202 72.0322069,243.493924 65.6373031,248.624132" id="Path-5"></path>
                <path d="M51.6206554,72.2021478 C61.1747657,51.0412489 75.3107016,33.1618014 86.4418287,12.6893252" id="Path-6"></path>
                <path d="M86.9967923,12.6328253 C88.7990791,8.6673185 88.4851777,-0.735241994 92.4036526,0.736304933 C110.657769,7.5914693 124.563667,23.7575157 141.756927,33.1974862 C153.436111,39.60995 185.746537,49.7670495 199.542668,52.7714274" id="Path-7"></path>
                <path d="M198.301139,51.9738586 C183.603181,94.086798 152.369443,118.260827 126.866024,152.58841 C117.379354,165.35746 110.236152,179.894958 101.921217,193.548232" id="Path-8"></path>
                <path d="M99.8702101,25.7723441 L90.2359424,41.040465" id="Path-9"></path>
                <path d="M96.873071,28.889038 C103.750751,25.5297453 105.489433,32.9438556 100.110841,35.0067979 C98.4321629,35.6506498 95.6295583,31.0956176 95.1337628,32.9110447 C93.9840455,37.1209015 96.4712466,41.5603519 97.1399884,45.8850056" id="Path-10"></path>
                <path d="M112.155143,32.2882315 L121.49641,36.1118315" id="Path-11"></path>
                <path d="M112.423313,33.6481717 C99.6661948,52.4488367 95.4636363,48.6087878 111.325801,51.2380455" id="Path-12"></path>
                <path d="M106.936995,41.9181848 C109.586419,42.0316227 112.235842,42.1450605 114.885266,42.2584984" id="Path-13"></path>
                <path d="M126.82257,42.0324987 C115.719671,41.1315683 129.804076,49.5108854 115.260208,50.9542319" id="Path-14"></path>
                <path d="M135.20041,47.1871319 C120.3337,60.2695871 131.555728,63.935186 141.650155,52.6820787" id="Path-15"></path>
                <path d="M143.657708,67.582293 C144.55995,64.1410626 153.586819,56.0345152 152.837576,58.9706524 C145.503764,87.7104371 160.212914,36.1685779 156.398282,63.9846928 C155.96938,67.1122317 150.631981,70.6440125 152.892203,72.7093333 C155.889297,75.4479834 169.17411,73.0201675 171.841666,68.1196993 C178.133273,56.5616192 134.989892,67.6012745 167.585703,85.5689803" id="Path-16"></path>
                <path d="M83.2498568,91.914054 C86.4525887,87.0230871 88.4668502,80.9577035 92.8580523,77.2411533 C96.2698935,74.3534978 106.168176,86.5159113 88.6033313,83.8976335" id="Path-17"></path>
                <path d="M101.905077,89.647487 L93.7147076,98.4010344" id="Path-18"></path>
                <path d="M111.325801,93.415901 C105.345852,88.6356209 99.7727179,94.3378687 107.873108,99.8450675" id="Path-19"></path>
                <path d="M119.944498,90.3281141 C116.143763,94.6334964 112.343028,98.9388787 108.542292,103.244261" id="Path-20"></path>
                <path d="M114.136624,95.8795608 C119.364704,95.6434874 124.592784,95.407414 129.820864,95.1713407" id="Path-21"></path>
                <path d="M115.179508,96.8150945 C117.445713,100.86557 119.711918,104.916046 121.978123,108.966522" id="Path-22"></path>
                <path d="M63.6312102,138.596136 C75.9823588,102.064707 70.1045433,129.00052 74.6584738,132.080249 C82.3866889,137.306682 93.7583216,123.353604 74.3369177,148.906717" id="Path-23"></path>
                <path d="M89.3519735,144.118676 C95.1628972,149.259186 102.698605,143.623983 94.5440492,139.841763 C89.6126902,137.554515 69.3777956,149.613117 98.3989978,156.979637" id="Path-24"></path>
                <path d="M68.9809091,67.7595703 C62.38579,69.1352099 66.287999,75.8001518 69.9904326,74.1687737 C78.990798,70.203004 71.6305621,66.957264 68.0758191,66.6924284" id="Path-26"></path>
                <path d="M89.6575336,174.790091 C87.1106827,174.495653 79.9972193,172.659177 85.5690237,182.101284 C88.4877391,187.047405 100.530789,178.238501 88.2602859,174.077393" id="Path-27"></path>
            </g>
        </g>
    </g>
</svg>