<?xml version="1.0" encoding="UTF-8" standalone="no"?>
<svg width="137px" height="153px" viewBox="0 0 137 153" version="1.1" xmlns="http://www.w3.org/2000/svg" xmlns:xlink="http://www.w3.org/1999/xlink">
    <!-- Generator: Sketch 39.1 (31720) - http://www.bohemiancoding.com/sketch -->
    <title>tictac</title>
    <desc>Created with Sketch.</desc>
    <defs></defs>
    <g id="Page-2" stroke="none" stroke-width="1" fill="none" fill-rule="evenodd">
        <g id="tictac" transform="translate(-2.000000, 0.000000)">
            <g id="image" transform="translate(2.000000, 0.000000)" stroke="#000000">
                <path d="M45.5,11 L49,141.5" id="Path-52"></path>
                <path d="M94,0.5 C94,0.5 91.5,32 91.5,58.5 C91.5,85 95.5,153 95.5,153" id="Path-53"></path>
                <polyline id="Path-54" points="15.5 52 9.5 50.5 87.5 40 130 38.5 137 36"></polyline>
                <path d="M0,96 L19.5,92.5 C19.5,92.5 58,88 64,86.5 C70,85 102,82.5 102,82.5 L131,79" id="Path-55"></path>
                <path d="M30.5,44.5 C30.5,44.5 28.9999999,36.5 32,32.5 C35.0000001,28.5 40.5,14 39,14 C37.5,14 30.5,25.5 30.5,25.5 L25,18 C25,18 19,20.5 20.5,26.5 C22,32.5 28.5,37 28.5,37 L24.5,37.5 L19,31 L30.5,44.5 Z" id="Path-56"></path>
                <path d="M68.5,33.5 C68.5,33.5 90.5,15.5 85,11 C79.5,6.5 73.5,10 73.5,10 L71,13 L75.5,13 L72.5,19.5 L75.5,18.5 L74.5,23 L71,23.5 L70,25 L73,25 L68.5,33.5 Z" id="Path-57"></path>
                <path d="M67.5,33.5 C67.5,33.5 51.9999999,21 56.5,14 C61.0000001,7 57.5000004,7.5 61,7.5 C64.4999996,7.5 66,14.5 66,14.5 L63.5,19 L67.5,19.5 L65,24.5 L67,24.5 L66.5,30.5 L67.5,33.5 Z" id="Path-58"></path>
                <path d="M61.5,76.5 C61.5,76.5 83.5,58.5 78,54 C72.5,49.5 66.5,53 66.5,53 L64,56 L68.5,56 L65.5,62.5 L68.5,61.5 L67.5,66 L64,66.5 L63,68 L66,68 L61.5,76.5 Z" id="Path-57-Copy" transform="translate(70.191358, 64.101607) rotate(30.000000) translate(-70.191358, -64.101607) "></path>
                <path d="M60.5,76.5 C60.5,76.5 44.9999999,64 49.5,57 C54.0000001,50 50.5000004,50.5 54,50.5 C57.4999996,50.5 59,57.5 59,57.5 L56.5,62 L60.5,62.5 L58,67.5 L60,67.5 L59.5,73.5 L60.5,76.5 Z" id="Path-58-Copy" transform="translate(54.590260, 63.496094) rotate(30.000000) translate(-54.590260, -63.496094) "></path>
                <path d="M112,34.5 C112,34.5 113.5,29 115,29 C116.5,29 127.164222,15.5 122.5,14 C117.835778,12.5 112.5,20 112.5,20 C112.5,20 111,10 107,11 C103,12 107,23 107,23 L110,33 L112,34.5 Z" id="Path-59"></path>
                <path d="M110.5,66 L111,71 C111,71 123,51 120,49.5 C117,48 110.5,55.5 110.5,55.5 C110.5,55.5 108.5,47.5 107,47.5 C105.5,47.5 104.5,50 104.5,50 L104.5,56 L110.5,66 Z" id="Path-60"></path>
            </g>
            <path d="M49,27.222445 C49,18.263036 40.9411255,11 31,11 C21.0588745,11 13,18.263036 13,27.222445 C13,36.1818539 21.0588745,43.4448899 31,43.4448899 C40.9411255,43.4448899 49,36.1818539 49,27.222445 Z" id="Oval-8" fill-opacity="0.497282609" fill="#F41010"></path>
            <path d="M83,26 C83,17.7157288 76.2842712,11.9481193 68,13.1176838 C59.7157288,14.2872482 53,20.0548576 53,26 C53,31.9451424 59.7157288,37.7127518 68,38.8823162 C76.2842712,40.0518807 83,34.2842712 83,26 Z" id="Oval-8-Copy-3" fill-opacity="0.452926857" fill="#7ED321"></path>
            <path d="M83,66 C83,54.0674962 76.2842712,45.873029 68,47.6971453 C59.7157288,49.5212616 53,57.7157288 53,66 C53,74.2842712 59.7157288,82.4787384 68,84.3028547 C76.2842712,86.126971 83,77.9325038 83,66 Z" id="Oval-8-Copy-4" fill-opacity="0.452926857" fill="#7ED321"></path>
            <path d="M105.425802,35.5525202 C101.98533,32.2038573 99.7716608,26.4247089 99.7716608,19.5 C99.7716608,7.59489531 106.314647,-0.924252616 114.38583,0.471950545 C122.457013,1.86815371 129,10.3873016 129,19.5 C129,24.6896504 126.877937,29.6867968 123.560057,33.2854421 C129.640302,37.0071407 134.566689,44.8842656 135.825041,54 C137.578522,66.7025492 128.702549,77 116,77 C103.297451,77 94.4214777,66.7025492 96.1749593,54 C97.2174773,46.4478045 100.777653,39.7457629 105.425802,35.5525202 Z" id="Combined-Shape" fill-opacity="0.415477808" fill="#D20A0A"></path>
            <path d="M129,109.5 C129,100.387302 122.457013,91.8681537 114.38583,90.4719505 C106.314647,89.0757474 99.7716608,97.5948953 99.7716608,109.5 C99.7716608,121.405105 106.314647,129.924253 114.38583,128.528049 C122.457013,127.131846 129,118.612698 129,109.5 Z" id="Oval-8-Copy-5" fill-opacity="0.41295856" fill="#D20A0A" transform="translate(114.385830, 109.500000) rotate(50.000000) translate(-114.385830, -109.500000) "></path>
        </g>
    </g>
</svg>