<?xml version="1.0" encoding="UTF-8" standalone="no"?>
<svg width="239px" height="257px" viewBox="0 0 239 257" version="1.1" xmlns="http://www.w3.org/2000/svg" xmlns:xlink="http://www.w3.org/1999/xlink">
    <!-- Generator: Sketch 39.1 (31720) - http://www.bohemiancoding.com/sketch -->
    <title>telescope</title>
    <desc>Created with Sketch.</desc>
    <defs></defs>
    <g id="Page-2" stroke="none" stroke-width="1" fill="none" fill-rule="evenodd">
        <g id="telescope">
            <g id="background">
                <ellipse id="Oval-6" fill="#F3FDEF" cx="117" cy="129" rx="117" ry="128"></ellipse>
                <ellipse id="Oval-5" fill-opacity="0.262935915" fill="#FF0080" cx="124" cy="45.5" rx="47" ry="45.5"></ellipse>
            </g>
            <g id="image" transform="translate(1.000000, 45.000000)" stroke="#000000" stroke-width="0.5">
                <path d="M101.5,61.8253968 C101.5,61.8253968 102,66.8518519 100.5,69.3650794 C99,71.8783069 95,75.3968254 95,75.3968254 L104,77.4074074 L107,70.3703704 L107,63.8359788 L101.5,61.8253968 Z" id="Path"></path>
                <path d="M107.5,66.3492063 L133,62.3280423 L133,69.8677249 L132,75.3968254 C132,75.3968254 124.75,73.3862434 122.5,73.8888889 C120.25,74.3915344 109.5,76.4021164 108.5,76.4021164 C107.5,76.4021164 104.5,74.8941799 104.5,74.8941799" id="Path-2"></path>
                <path d="M133,62.8306878 L133,53.7830688 L145.5,53.7830688 C145.5,53.7830688 146.5,67.3544974 146,68.8624339 C145.5,70.3703704 145.5,72.3809524 145.5,72.3809524 L146,82.4338624 C146,82.4338624 139.5,84.4444444 137.5,84.4444444 C135.5,84.4444444 131.5,85.4497354 131.5,85.4497354 L133,62.8306878 Z" id="Path-3"></path>
                <path d="M147,59.8148148 L147.5,48.7566138 C147.5,48.7566138 157,46.7460317 158.5,46.7460317 L167.5,46.7460317 C169,46.7460317 182.5,45.2380952 182.5,44.2328042 C182.5,43.2275132 182.5,60.8201058 182.5,60.8201058 L182,66.3492063 L183.5,69.8677249 L182,82.9365079 C182,82.9365079 179,84.4444426 175,84.9470899 C171,85.4497372 158,88.9682522 157,88.968254 C156,88.9682558 150.5,89.9735432 149,88.4656085 C147.5,86.9576738 143.5,85.4497354 143.5,85.4497354 L146,81.9312169" id="Path-4"></path>
                <path d="M183,44.2328042 L183.5,39.2063492 L196.5,38.7037037 C196.5,38.7037037 203,41.2169312 204.5,40.7142857 C206,40.2116402 210,38.7037037 210,38.7037037 C210,38.7037037 207.5,44.7354497 207.5,48.7566138 C207.5,52.7777778 207,59.8148148 206.5,65.3439153 C206,70.8730159 203,75.3968254 204,82.4338624 C205,89.4708995 206.5,88.968254 206.5,88.968254 L195.5,84.9470899 L184,83.4391534" id="Path-5"></path>
                <path d="M210.5,38.7037037 L212,32.1693122 C212,32.1693122 219,35.1851852 220.5,35.1851852 C222,35.1851852 226,35.1851852 226.5,36.1904762 C227,37.1957672 232.5,42.2222222 232.5,42.2222222 C232.5,42.2222222 231.409141,42.8970721 229.98369,44.1776563 C227.92958,46.0230109 225.180672,49.1262062 224,53.2804233 C222,60.3174603 217.5,66.3492063 218,68.8624339 C218.5,71.3756614 215.5,79.4179894 215.5,79.4179894 C215.5,79.4179894 215,90.978836 219.5,91.4814815 C224,91.984127 228,82.9365079 228,82.9365079 L229.5,71.8783069 L231,58.3068783 C231,58.3068783 232.5,56.2962963 232.5,54.7883598 C232.5,53.2804233 231,45.2380952 231,45.2380952" id="Path-6"></path>
                <path d="M206.5,89.4708995 C206.5,89.4708995 210,99.021164 215,99.021164 C220,99.021164 225.5,99.021164 226,94.4973545 C226.5,89.973545 226.5,86.957672 226.5,86.957672 C226.5,86.957672 232,79.4179894 232,77.9100529 C232,76.4021164 237,58.8095238 237,52.2751323 C237,45.7407407 234,40.2116402 234,40.2116402 L231,45.2380952" id="Path-7"></path>
                <ellipse id="Oval" fill="#000000" cx="224.5" cy="67.8571429" rx="3.5" ry="5.52910053"></ellipse>
                <path d="M219.143028,65.5150248 C222.630347,61.93765 228.627802,58.8060792 230.024576,66.0556161" id="Path-8"></path>
                <path d="" id="Path-9"></path>
                <path d="M218.103774,70.0633615 C224.730363,74.5295471 221.080092,73.7675078 229.101952,72.1068049" id="Path-10"></path>
                <path d="" id="Path-11"></path>
                <path d="M151,100.026455 C151,100.026455 144.460839,94.4973545 146.5,92.989418 C148.539161,91.4814815 149.5,92.4867725 149.5,92.4867725 L150,94.4973545 L154,88.4656085 L154,94.4973545 L157.5,90.978836 C157.5,90.978836 157.5,93.4920635 158,93.994709 C158.5,94.4973545 163,88.4656085 163,88.4656085 L162.5,92.4867725 L166,88.4656085 L160.5,101.031746 C160.5,101.031746 159,99.5238095 158.5,99.5238095 C158,99.5238095 146,141.746032 146,141.746032 C146,141.746032 143,147.275132 144,147.777778 C145,148.280423 138.5,150.291005 138.5,150.291005 C138.5,150.291005 128.5,149.285714 122.5,151.296296 C116.5,153.306878 65.5,166.375661 65.5,166.375661 L55.5,171.904762 C55.5,171.904762 48.5,161.851852 48.5,152.301587 C48.5,142.751323 50.5,128.677249 52.5,127.169312 C54.5,125.661376 55.5,129.179894 55.5,129.179894 L49.5,109.57672 C49.5,109.57672 53.5,109.57672 51,104.550265 C48.5,99.5238095 45,99.5238095 45,99.5238095 L48,105.05291 L50,107.063492 L47.5,107.063492 C47.5,107.063492 45.5,114.603175 41.5,114.603175 C37.5,114.603175 41,105.555556 37.5,105.555556 C34,105.555556 30.5,114.603175 26,112.089947 C21.5,109.57672 27,101.534392 26,100.529101 C25,99.5238095 16,109.57672 13.5,106.560847 C11,103.544974 11.0000001,83.4391534 15,79.4179894 C18.9999999,75.3968254 5,84.9470899 1.5,80.4232804 C-2,75.899471 2.99999997,70.8730159 3,68.8624339 C3.00000003,66.8518519 8.5,64.3386243 8.5,64.3386243 C8.5,64.3386243 1.99999997,68.3597884 3,58.3068783 C4.00000003,48.2539683 14,41.7195767 14,41.7195767 C14,41.7195767 7.99999973,33.6772487 11.5,27.1428571 C15.0000003,20.6084656 21,14.0740741 21,14.0740741 C21,14.0740741 28.4999997,16.5873016 30.5,14.0740741 C32.5000003,11.5608466 35.9999997,-5.71577118e-16 40.5,0 C45.0000003,5.71577102e-16 50.9999997,1.50793651 55,1.50793651 C59.0000003,1.50793651 65.4999997,5.02645503 69.5,5.02645503 C73.5000003,5.02645503 79.4999997,1.50793651 82.5,1.50793651 C85.5000003,1.50793651 93.9999997,17.5925926 99.5,17.5925926 C105,17.5925926 116.5,12.0634921 119.5,14.0740741 C122.5,16.0846561 129.5,26.1375661 124.5,30.1587302 C119.5,34.1798942 117,39.7089947 114.5,39.7089947 C112,39.7089947 112.5,35.1851852 109.5,35.1851852 C106.5,35.1851852 107.5,37.6984127 103.5,37.6984127 C99.5000003,37.6984127 102,30.6613757 99.5,30.6613757 C97.0000003,30.6613757 94.9999997,36.1904762 92.5,36.1904762 C90.0000003,36.1904762 90.4999997,31.6666667 90.5,31.6666667 C90.5000003,31.6666667 86.871742,36.1904762 85,36.1904762 C83.128258,36.1904762 80.9999997,28.1481481 77.5,28.1481481 C74.0000003,28.1481481 71.9999997,30.6613757 68,34.1798942 C64.0000003,37.6984127 63.9999997,32.6719577 59.5,32.6719577 C55.0000003,32.6719577 43.4999997,40.2116402 41.5,44.2328042 C39.5000003,48.2539683 32.4999997,55.2910053 34.5,59.3121693 C36.5000003,63.3333333 44,65.8465608 44,65.8465608 L40,67.8571429 L30.5,70.8730159 L30,65.8465608 L30,71.8783069 C30,71.8783069 21.4999997,85.952381 29,85.952381 L41.5,85.952381 L42.5,79.9206349 C42.5,79.9206349 37.4999997,70.3703704 35,70.3703704" id="Path-12"></path>
                <path d="M104.5,37.6984127 L99,56.2962963 C99,56.2962963 97,62.8306878 90,62.8306878 C83,62.8306878 87,61.8253968 87,61.8253968 L91,92.4867725 L86.5178703,90.5154654 L83,88.968254 L86.5,91.984127 C86.5,91.984127 83.5,96.4686597 81.5,93.4920635 C79.5,90.5154673 78,87.4603175 78,87.4603175" id="Path-13"></path>
                <path d="M57,115.608466 C57,115.608466 58.5,131.190476 63.5,130.185185 C68.5,129.179894 87,124.656085 88,124.656085 C89,124.656085 91.5,126.666667 91.5,126.666667 L85.5,113.597884" id="Path-14"></path>
                <ellipse id="Oval-2" cx="75.5" cy="104.550265" rx="12.5" ry="12.0634921"></ellipse>
                <path d="M61.5251016,97.8532975 C70.9419216,99.0369746 83.5244834,112.53931 91.5467273,102.071107" id="Path-15"></path>
                <path d="M87.4935844,99.85777 L89.4840703,91.9275092" id="Path-16"></path>
                <path d="M89.7079073,86.0094443 C92.4930619,82.7507579 95.2782165,79.4920714 98.0633711,76.2333849" id="Path-17"></path>
                <path d="M88.6335871,68.6010496 C94.841707,72.3874203 92.6669766,70.0472335 95.8369753,74.9149718" id="Path-18"></path>
                <path d="M101.398429,63.4889417 L99.3884524,55.4071474" id="Path-19"></path>
                <path d="M100.073348,57.0870819 C94.343441,64.6519412 97.5232026,59.2180522 95.2900958,75.3787614" id="Path-20"></path>
                <path d="M96.4933603,72.6487863 L99.0288338,59.3395881" id="Path-21"></path>
                <path d="M96.4428194,73.6193573 C100.259641,63.4705117 99.2449926,68.5869616 99.7480711,58.3247227" id="Path-22"></path>
                <path d="M97.3927309,72.9809952 C101.572535,65.0456338 100.969547,69.1458063 99.6541166,60.7563612" id="Path-23"></path>
                <path d="M96.3767273,70.068631 C96.5194722,62.2361136 95.5816999,65.6637868 98.4942655,59.618383" id="Path-24"></path>
                <path d="M97.0227721,68.1586154 L98.1678552,61.7869067" id="Path-25"></path>
                <path d="M97.1129127,65.3114317 L97.5160691,62.3027297" id="Path-26"></path>
                <path d="M97.236336,70.0319093 L99.0157713,62.5421194" id="Path-27"></path>
                <path d="M98.0798938,69.9984506 C98.872669,68.7653215 99.6654442,67.5321925 100.458219,66.2990635" id="Path-28"></path>
                <path d="M98.4872105,70.8287464 L100.707047,62.2473634" id="Path-29"></path>
                <path d="M101.429361,65.6657364 C100.959573,63.8679239 100.489785,62.0701115 100.019997,60.272299" id="Path-30"></path>
                <path d="M99.0551955,65.0431639 L98.1743928,66.1058788" id="Path-31"></path>
                <path d="M99.1720811,65.7493834 L99.1213646,66.4380768" id="Path-32"></path>
                <path d="M96.2164593,73.8414316 L97.0754697,64.954538" id="Path-33"></path>
                <path d="M93.103735,62.2733413 L93.8535833,49.2089274" id="Path-34"></path>
                <path d="M95.4778644,62.1791732 L96.0609757,52.1822857" id="Path-35"></path>
                <path d="M97.1541337,58.871518 L97.029081,46.5764577" id="Path-36"></path>
                <path d="M47.4391227,66.2268618 C76.0418809,65.9709702 67.8264613,59.8220852 78.0062351,69.3733143" id="Path-37"></path>
                <path d="M51.7529005,55.1367923 C52.0275616,64.2755559 50.5143536,60.715327 54.5251154,66.4123058" id="Path-38"></path>
                <path d="M58.462163,55.4371592 L62.8434924,65.4929218" id="Path-39"></path>
                <path d="M65.702312,55.4275823 L67.0022478,64.21658" id="Path-40"></path>
                <path d="M70.6309828,57.663357 C70.6309828,61.2948426 73.2250918,69.2332893 77.7074491,65.7558517" id="Path-41"></path>
                <path d="M50.9821191,67.1984836 L52.1374251,72.2899207" id="Path-42"></path>
                <path d="M51.1362753,71.051016 C58.1534682,74.9319432 95.3892807,85.8702303 77.6702091,69.2888633" id="Path-43"></path>
                <path d="M55.5920848,73.7699897 L51.5381209,84.581458" id="Path-44"></path>
                <path d="M61.60851,75.9099952 L58.2291965,83.729983" id="Path-45"></path>
                <path d="M69.926887,77.7870709 C68.8483704,80.2613979 67.7698538,82.735725 66.6913371,85.210052" id="Path-46"></path>
                <ellipse id="Oval-3" fill="#000000" cx="68" cy="71.3756614" rx="6" ry="7.03703704"></ellipse>
                <polyline id="Path-47" points="59 155.31746 140 132.195767 151.5 99.021164"></polyline>
                <path d="M79.5193889,128.252802 C79.9685805,146.433925 75.4182989,141.755386 83.3652165,147.497906" id="Path-48"></path>
                <path d="M72.1038761,162.458868 C58.1745923,182.222339 75.8097581,200.546695 92.7975005,182.380825 C106.06445,168.193791 77.0058036,151.477425 73.2565385,160.7449 L72.1038761,162.458868 Z" id="Path-49"></path>
                <path d="M83.8375743,186.403891 C85.0707614,170.440262 86.5817966,157.622579 80.5796317,172.766921" id="Path-50"></path>
                <path d="M80.5796317,172.766921 C79.8407366,159.129361 63.8532178,178.991289 83.7637226,183.748186" id="Path-51"></path>
            </g>
        </g>
    </g>
</svg>