<?xml version="1.0" encoding="UTF-8" standalone="no"?>
<svg width="329px" height="215px" viewBox="0 0 329 215" version="1.1" xmlns="http://www.w3.org/2000/svg" xmlns:xlink="http://www.w3.org/1999/xlink">
    <!-- Generator: Sketch 39.1 (31720) - http://www.bohemiancoding.com/sketch -->
    <title>bullhorn</title>
    <desc>Created with Sketch.</desc>
    <defs></defs>
    <g id="Page-1" stroke="none" stroke-width="1" fill="none" fill-rule="evenodd">
        <g id="bullhorn" transform="translate(-8.000000, 1.000000)">
            <g id="image">
                <g id="horn" transform="translate(87.000000, 172.500000) rotate(-14.000000) translate(-87.000000, -172.500000) translate(8.000000, 130.000000)">
                    <path d="M7.48856874,47.2239819 L128.70297,82.1190367 C131.120268,83.9792814 133.749833,85 136.5,85 C148.374122,85 158,65.9721019 158,42.5 C158,19.0278981 148.374122,0 136.5,0 C135.309366,0 134.141336,0.191313052 133.003349,0.559236418 L133,0 L8.52522278,34.0767451 C7.78620509,30.473397 6.26126699,28 4.5,28 C2.01471863,28 0,32.9248678 0,39 C0,45.0751322 2.01471863,50 4.5,50 C5.64702389,50 6.69381464,48.9509689 7.48856874,47.2239819 Z" id="Combined-Shape" fill="#967D5A"></path>
                    <ellipse id="Oval-5-Copy" fill="#FFFFFF" cx="137" cy="42.5813953" rx="18" ry="35.5813953"></ellipse>
                    <path d="M83,54.5 C83,41.5213084 75.322508,31 65.8518417,31 C56.3811754,31 48.7036834,41.5213084 48.7036834,54.5 C48.7036834,67.4786916 56.3811754,78 65.8518417,78 C75.322508,78 83,67.4786916 83,54.5 Z" id="Oval-6" stroke="#967D5A" stroke-width="7" transform="translate(65.851842, 54.500000) rotate(30.000000) translate(-65.851842, -54.500000) "></path>
                </g>
                <g id="message" transform="translate(144.000000, 0.000000)">
                    <path d="M4.64110364,54.6917428 C1.63993465,61.7943852 0,69.4788148 0,77.5 C0,101.335636 14.4811463,122.197613 36.1303294,133.656285 L12.0376642,155.564837 L45.645988,137.906354 C54.5203484,141.186945 64.2693506,143 74.5,143 C108.810131,143 137.703156,122.608494 146.355801,94.8580228 C171.891888,92.9700931 192,72.4884184 192,47.5 C192,21.2664744 169.838095,0 142.5,0 C127.06178,0 113.274261,6.78193183 104.19638,17.4104507 C95.0980383,13.9299751 85.055373,12 74.5,12 C66.3818679,12 58.5670096,13.1416074 51.2517816,15.2521866 C46.3953879,13.1751765 40.8662326,12 35,12 C15.6700338,12 0,24.7598846 0,40.5 C0,45.6670623 1.68865721,50.5129645 4.64110364,54.6917428 Z" id="Combined-Shape" stroke="#979797" fill="#EA9AFA"></path>
                    <text id="Be-Kind-to-each-othe" fill="#FFFFFF" font-family="ArialNarrow, Arial Narrow" font-size="18" font-weight="normal">
                        <tspan x="23" y="62">Be Kind to each other</tspan>
                        <tspan x="23" y="83">thats all</tspan>
                    </text>
                </g>
            </g>
        </g>
    </g>
</svg>